<svg xmlns="http://www.w3.org/2000/svg" xmlns:xlink="http://www.w3.org/1999/xlink" width="139" height="40" viewBox="0 0 139 40">
    <defs>
        <path id="a" d="M.114.498h1.768v1.769H.114z"/>
    </defs>
    <g fill="none" fill-rule="evenodd">
        <path fill="#FFF" d="M2.489 9.388H0V4.943h2.666V0H8.64v4.943h3.84v4.445h-3.84v6.472c0 2.169 2.098 2.525 3.271 2.525.25 0 .462-.036.604-.036h.214v4.978l-.463.072c-.283.035-.675.035-1.208.035-2.95 0-8.568-.782-8.568-6.934V9.388zM14.969 18.811h2.488V10.17c0-.533-.249-.782-.782-.782h-1.706V4.943h5.795c1.67 0 2.595.675 2.595 2.346v.96c0 .32 0 .57-.036.676-.035.107-.035.178-.035.25h.071c.783-2.49 3.093-4.552 5.83-4.552.25 0 .392 0 .499.035a.61.61 0 0 0 .213.036v6.045l-.356-.071c-.249-.036-.497-.036-.889-.036-3.413 0-5.048 2.134-5.048 5.512v2.667h2.489v4.445H14.969v-4.445zM41.528 18.562c2.24 0 4.16-1.67 4.16-4.41 0-2.737-1.92-4.515-4.16-4.515s-4.16 1.778-4.16 4.516 1.92 4.409 4.16 4.409m-.035-14.046c5.795 0 10.416 3.84 10.416 9.637 0 5.725-4.621 9.53-10.38 9.53-5.76 0-10.382-3.805-10.382-9.53 0-5.796 4.657-9.637 10.346-9.637M63.821 18.562c2.24 0 4.16-1.67 4.16-4.41 0-2.737-1.92-4.515-4.16-4.515s-4.16 1.778-4.16 4.516 1.92 4.409 4.16 4.409m-.036-14.046c5.796 0 10.417 3.84 10.417 9.637 0 5.725-4.621 9.53-10.38 9.53-5.76 0-10.382-3.805-10.382-9.53 0-5.796 4.657-9.637 10.345-9.637M85.758 4.516c3.662 0 8.07 1.28 8.07 4.659v2.916h-5.226v-1.103c0-.889-1.173-1.351-2.595-1.351-2.88 0-4.088 1.778-4.088 4.303 0 3.27 2.097 4.657 4.621 4.657 1.85 0 3.947-.782 5.511-2.026l2.062 4.303c-1.991 1.813-4.978 2.809-7.964 2.809-5.403 0-10.417-3.592-10.417-9.53 0-5.299 4.09-9.637 10.026-9.637M106.025 18.562c2.24 0 4.159-1.67 4.159-4.41 0-2.737-1.92-4.515-4.16-4.515s-4.159 1.778-4.159 4.516 1.92 4.409 4.16 4.409m-.036-14.046c5.795 0 10.417 3.84 10.417 9.637 0 5.725-4.622 9.53-10.381 9.53-5.76 0-10.382-3.805-10.382-9.53 0-5.796 4.658-9.637 10.346-9.637M128.317 18.562c2.24 0 4.16-1.67 4.16-4.41 0-2.737-1.92-4.515-4.16-4.515s-4.159 1.778-4.159 4.516 1.92 4.409 4.16 4.409m-.036-14.046c5.795 0 10.417 3.84 10.417 9.637 0 5.725-4.622 9.53-10.382 9.53-5.759 0-10.38-3.805-10.38-9.53 0-5.796 4.657-9.637 10.345-9.637M77.627 30.475c0-.21.105-.327.315-.327h.248c.21 0 .328.117.328.327v4.81h1.062l1.822-2.32a.469.469 0 0 1 .393-.196h.328c.263 0 .354.183.184.393l-1.993 2.477v.026l2.28 3.304c.145.223.053.393-.222.393h-.341c-.184 0-.288-.065-.38-.223l-2.058-3.067h-1.075v2.962c0 .21-.118.328-.328.328h-.248c-.21 0-.315-.117-.315-.328v-8.56zM83.733 33.097c0-.21.118-.328.327-.328h.237c.197 0 .314.118.314.328v.76c0 .262-.052.472-.052.472h.026c.249-.604 1.114-1.717 2.661-1.717 1.638 0 2.215.93 2.215 2.556v3.866c0 .21-.118.328-.328.328h-.249c-.21 0-.315-.117-.315-.328v-3.63c0-1.036-.17-1.953-1.44-1.953-1.404 0-2.505 1.153-2.505 2.687v2.896c0 .21-.104.328-.314.328h-.25c-.209 0-.327-.117-.327-.328v-5.937zM94.166 38.72c1.402 0 2.555-1.153 2.555-2.687 0-1.494-1.153-2.622-2.555-2.622-1.416 0-2.57 1.128-2.57 2.622 0 1.534 1.154 2.687 2.57 2.687m-.013-6.108c1.926 0 3.486 1.468 3.486 3.42a3.44 3.44 0 0 1-3.473 3.487c-1.928 0-3.488-1.493-3.488-3.486 0-1.953 1.56-3.42 3.475-3.42M98.2 33.136c-.065-.223.04-.367.275-.367h.276c.184 0 .315.078.367.275l1.508 4.64c.105.314.196.708.196.708h.026s.105-.394.21-.708l1.533-4.627c.053-.184.184-.262.368-.262h.314c.184 0 .315.078.367.262l1.534 4.627c.104.314.21.708.21.708h.026s.078-.38.196-.708l1.508-4.64c.052-.197.183-.275.368-.275h.274c.236 0 .328.144.262.367l-2.019 5.95c-.052.198-.183.276-.366.276h-.407c-.196 0-.314-.078-.367-.275l-1.533-4.418c-.105-.327-.197-.708-.197-.708h-.026s-.092.38-.21.708l-1.52 4.418c-.053.197-.17.275-.368.275h-.406c-.196 0-.314-.078-.38-.275l-2.018-5.951zM111.41 33.136c-.065-.223.04-.367.275-.367h.275c.184 0 .315.078.368.275l1.507 4.64c.105.314.197.708.197.708h.025s.105-.394.21-.708l1.534-4.627c.052-.184.183-.262.367-.262h.315c.183 0 .314.078.367.262l1.533 4.627c.105.314.21.708.21.708h.027s.078-.38.196-.708l1.507-4.64c.052-.197.184-.275.368-.275h.275c.235 0 .328.144.262.367l-2.02 5.95c-.052.198-.182.276-.366.276h-.407c-.196 0-.314-.078-.366-.275l-1.534-4.418c-.104-.327-.197-.708-.197-.708h-.026s-.092.38-.21.708l-1.52 4.418c-.053.197-.17.275-.367.275h-.406c-.197 0-.315-.078-.38-.275l-2.02-5.951zM122.312 30.475c0-.21.106-.327.315-.327h.25c.209 0 .327.117.327.327v3.29c0 .302-.052.537-.052.537h.026c.248-.615 1.14-1.69 2.634-1.69 1.64 0 2.216.93 2.216 2.556v3.866c0 .21-.105.328-.316.328h-.248c-.21 0-.328-.117-.328-.328v-3.63c0-1.036-.157-1.953-1.442-1.953-1.39 0-2.49 1.14-2.49 2.726v2.857c0 .21-.118.328-.328.328h-.249c-.21 0-.315-.117-.315-.328v-8.56zM132.745 38.72c1.402 0 2.555-1.153 2.555-2.687 0-1.494-1.153-2.622-2.555-2.622-1.416 0-2.57 1.128-2.57 2.622 0 1.534 1.154 2.687 2.57 2.687m-.013-6.108c1.926 0 3.486 1.468 3.486 3.42a3.44 3.44 0 0 1-3.473 3.487c-1.928 0-3.488-1.493-3.488-3.486 0-1.953 1.56-3.42 3.475-3.42"/>
        <g transform="translate(136.97 37.095)">
            <mask id="b" fill="#fff">
                <use xlink:href="#a"/>
            </mask>
            <path fill="#E50068" d="M1.883 1.383a.884.884 0 1 0-1.769-.001.884.884 0 0 0 1.769 0" mask="url(#b)"/>
        </g>
    </g>
</svg>
